<svg width="20" height="20" viewBox="0 0 20 20" fill="none" xmlns="http://www.w3.org/2000/svg">
<path d="M17.5002 6.66732C18.4207 6.66732 19.1668 7.41351 19.1668 8.33398V11.6673C19.1668 12.5878 18.4207 13.334 17.5002 13.334H16.6152C16.2052 16.6226 13.3998 19.1673 10.0002 19.1673V17.5007C12.7616 17.5007 15.0002 15.2621 15.0002 12.5007V7.50065C15.0002 4.73923 12.7616 2.50065 10.0002 2.50065C7.23874 2.50065 5.00016 4.73923 5.00016 7.50065V13.334H2.50016C1.57969 13.334 0.833496 12.5878 0.833496 11.6673V8.33398C0.833496 7.41351 1.57969 6.66732 2.50016 6.66732H3.38507C3.79515 3.37873 6.60048 0.833984 10.0002 0.833984C13.3998 0.833984 16.2052 3.37873 16.6152 6.66732H17.5002ZM6.46636 13.1547L7.34981 11.7412C8.11817 12.2225 9.02666 12.5007 10.0002 12.5007C10.9737 12.5007 11.8822 12.2225 12.6505 11.7412L13.534 13.1547C12.5095 13.7964 11.2982 14.1673 10.0002 14.1673C8.70216 14.1673 7.49085 13.7964 6.46636 13.1547Z" fill="#292D32"/>
</svg>
