<svg width="116" height="116" viewBox="0 0 116 116" fill="none" xmlns="http://www.w3.org/2000/svg">
<path d="M45.4506 6.26314C51.3425 -2.08771 63.7267 -2.08771 69.6186 6.26314L69.9972 6.79971C73.2886 11.4647 78.9712 13.8186 84.5973 12.8472L85.2444 12.7355C95.3155 10.9968 104.072 19.7538 102.334 29.8249L102.222 30.472C101.251 36.098 103.605 41.7807 108.27 45.072L108.806 45.4506C117.157 51.3425 117.157 63.7267 108.806 69.6186L108.27 69.9972C103.605 73.2886 101.251 78.9712 102.222 84.5973L102.334 85.2444C104.072 95.3155 95.3155 104.072 85.2444 102.334L84.5973 102.222C78.9712 101.251 73.2886 103.605 69.9972 108.27L69.6186 108.806C63.7267 117.157 51.3425 117.157 45.4506 108.806L45.072 108.27C41.7807 103.605 36.098 101.251 30.472 102.222L29.8249 102.334C19.7538 104.072 10.9968 95.3155 12.7355 85.2444L12.8472 84.5973C13.8186 78.9712 11.4647 73.2886 6.79971 69.9972L6.26314 69.6186C-2.08771 63.7267 -2.08771 51.3425 6.26314 45.4506L6.79971 45.072C11.4647 41.7807 13.8186 36.098 12.8472 30.472L12.7355 29.8249C10.9968 19.7538 19.7538 10.9968 29.8249 12.7355L30.472 12.8472C36.098 13.8186 41.7807 11.4647 45.072 6.79971L45.4506 6.26314Z" fill="#C8E6C9"/>
<path d="M47.5444 77.583H47.549H47.5491H47.5491H47.5491H47.5492H47.5492H47.5492H47.5493H47.5493H47.5494H47.5494H47.5494H47.5495H47.5495H47.5496H47.5496H47.5496H47.5497H47.5497H47.5498H47.5498H47.5498H47.5499H47.5499H47.5499H47.55H47.55H47.5501H47.5501H47.5501H47.5502H47.5502H47.5503H47.5503H47.5503H47.5504H47.5504H47.5505H47.5505H47.5505H47.5506H47.5506H47.5507H47.5507H47.5507H47.5508H47.5508H47.5508H47.5509H47.5509H47.551H47.551H47.551H47.5511H47.5511H47.5512H47.5512H47.5512H47.5513H47.5513H47.5514H47.5514H47.5514H47.5515H47.5515H47.5515H47.5516H47.5516H47.5517H47.5517H47.5517H47.5518H47.5518H47.5519H47.5519H47.5519H47.552H47.552H47.5521H47.5521H47.5521H47.5522H47.5522H47.5523H47.5523H47.5523H47.5524H47.5524H47.5524H47.5525H47.5525H47.5526H47.5526H47.5526H47.5527H47.5527H47.5528H47.5528H47.5528H47.5529H47.5529H47.553H47.553H47.553H47.5531H47.5531H47.5532H47.5532H47.5532H47.5533H47.5533H47.5533H47.5534H47.5534H47.5535H47.5535H47.5535H47.5536H47.5536H47.5537H47.5537H47.5537H47.5538H47.5538H47.5539H47.5539H47.5539H47.554H47.554H47.554H47.5541H47.5541H47.5542H47.5542H47.5542H47.5543H47.5543H47.5544H47.5544H47.5544H47.5545H47.5545H47.5546H47.5546H47.5546H47.5547H47.5547H47.5548H47.5548H47.5548H47.5549H47.5549H47.5549H47.555H47.555H47.5551H47.5551H47.5551H47.5552H47.5552H47.5553H47.5553H47.5553H47.5554H47.5554H47.5555H47.5555H47.5555H47.5556H47.5556H47.5557H47.5557H47.5557H47.5558H47.5558H47.5558H47.5559H47.5559H47.556H47.556H47.556H47.5561H47.5561H47.5562H47.5562H47.5562H47.5563H47.5563H47.5564H47.5564H47.5564H47.5565H47.5565H47.5566H47.5566H47.5566H47.5567H47.5567H47.5567H47.5568H47.5568H47.5569H47.5569H47.5569H47.557H47.557H47.5571H47.5571H47.5571H47.5572H47.5572H47.5573H47.5573H47.5573H47.5574H47.5574H47.5574H47.5575H47.5575H47.5576H47.5576H47.5576H47.5577H47.5577H47.5578H47.5578H47.5578H47.5579H47.5579H47.558H47.558H47.558H47.5581H47.5581H47.5582H47.5582H47.5582H47.5583H47.5583H47.5583H47.5584H47.5584H47.5585H47.5585H47.5585H47.5586H47.5586H47.5587H47.5587H47.5587H47.5588H47.5588H47.5589H47.5589H47.5589H47.559H47.559C48.4655 77.583 49.3378 77.2235 49.9788 76.5786C49.9791 76.5782 49.9795 76.5778 49.9799 76.5774L83.2301 43.3272C84.5668 41.9905 84.5668 39.8234 83.2301 38.4867C81.8934 37.15 79.7263 37.15 78.3896 38.4867L79.0422 39.1392L78.3896 38.4867L47.5742 69.3022L36.6954 58.251C36.6953 58.2509 36.6951 58.2507 36.695 58.2505C35.3696 56.9028 33.1996 56.8914 31.855 58.2132L31.8539 58.2143C30.5095 59.5405 30.4895 61.707 31.8178 63.0541C31.818 63.0543 31.8181 63.0545 31.8183 63.0547L45.1188 76.5613L45.1192 76.5617C45.762 77.2136 46.6335 77.5785 47.5444 77.583Z" fill="#43A048" stroke="#43A048" stroke-width="1.85596"/>
</svg>
