<svg width="20" height="20" viewBox="0 0 20 20" fill="none" xmlns="http://www.w3.org/2000/svg">
<path opacity="0.4" d="M10 4.41662V17.775C9.85835 17.775 9.70835 17.75 9.59169 17.6833L9.55835 17.6666C7.95835 16.7916 5.16669 15.875 3.35835 15.6333L3.11669 15.6C2.31669 15.5 1.66669 14.75 1.66669 13.95V3.88329C1.66669 2.89162 2.47502 2.14162 3.46669 2.22495C5.21669 2.36662 7.86669 3.24995 9.35002 4.17495L9.55835 4.29995C9.68335 4.37495 9.84169 4.41662 10 4.41662Z" fill="#0071FF"/>
<path d="M18.3333 3.89165V13.95C18.3333 14.75 17.6833 15.5 16.8833 15.6L16.6083 15.6333C14.7917 15.875 11.9917 16.8 10.3917 17.6833C10.2833 17.75 10.15 17.775 10 17.775V4.41665C10.1583 4.41665 10.3167 4.37498 10.4417 4.29998L10.5833 4.20832C12.0667 3.27498 14.725 2.38332 16.475 2.23332H16.525C17.5167 2.14998 18.3333 2.89165 18.3333 3.89165Z" fill="#0071FF"/>
<path d="M6.45831 7.69995H4.58331C4.24165 7.69995 3.95831 7.41662 3.95831 7.07495C3.95831 6.73328 4.24165 6.44995 4.58331 6.44995H6.45831C6.79998 6.44995 7.08331 6.73328 7.08331 7.07495C7.08331 7.41662 6.79998 7.69995 6.45831 7.69995Z" fill="#0071FF"/>
<path d="M7.08331 10.2H4.58331C4.24165 10.2 3.95831 9.91662 3.95831 9.57495C3.95831 9.23328 4.24165 8.94995 4.58331 8.94995H7.08331C7.42498 8.94995 7.70831 9.23328 7.70831 9.57495C7.70831 9.91662 7.42498 10.2 7.08331 10.2Z" fill="#0071FF"/>
</svg>
