<svg width="34" height="33" viewBox="0 0 34 33" fill="none" xmlns="http://www.w3.org/2000/svg">
<circle cx="17.1278" cy="16.6047" r="15.8953" fill="#F8F8F8" stroke="white"/>
<path d="M14.6685 9.22675H19.5872L21.2267 10.8663H24.5058C24.9585 10.8663 25.3255 11.2333 25.3255 11.686V23.1628C25.3255 23.6156 24.9585 23.9826 24.5058 23.9826H9.74994C9.2972 23.9826 8.93018 23.6156 8.93018 23.1628V11.686C8.93018 11.2333 9.2972 10.8663 9.74994 10.8663H13.029L14.6685 9.22675ZM17.1279 22.343C19.8443 22.343 22.0465 20.1409 22.0465 17.4244C22.0465 14.7079 19.8443 12.5058 17.1279 12.5058C14.4114 12.5058 12.2092 14.7079 12.2092 17.4244C12.2092 20.1409 14.4114 22.343 17.1279 22.343ZM17.1279 20.7035C15.3169 20.7035 13.8488 19.2354 13.8488 17.4244C13.8488 15.6135 15.3169 14.1454 17.1279 14.1454C18.9388 14.1454 20.4069 15.6135 20.4069 17.4244C20.4069 19.2354 18.9388 20.7035 17.1279 20.7035Z" fill="black"/>
</svg>
