<svg width="14" height="14" viewBox="0 0 14 14" fill="none" xmlns="http://www.w3.org/2000/svg">
<path d="M4.9 0.699707H9.1L10.5 2.09971H13.3C13.6866 2.09971 14 2.41311 14 2.79971V12.5997C14 12.9863 13.6866 13.2997 13.3 13.2997H0.7C0.313404 13.2997 0 12.9863 0 12.5997V2.79971C0 2.41311 0.313404 2.09971 0.7 2.09971H3.5L4.9 0.699707ZM7 11.8997C9.31959 11.8997 11.2 10.0193 11.2 7.69971C11.2 5.38011 9.31959 3.49971 7 3.49971C4.6804 3.49971 2.8 5.38011 2.8 7.69971C2.8 10.0193 4.6804 11.8997 7 11.8997ZM7 10.4997C5.4536 10.4997 4.2 9.24608 4.2 7.69971C4.2 6.15334 5.4536 4.89971 7 4.89971C8.54637 4.89971 9.8 6.15334 9.8 7.69971C9.8 9.24608 8.54637 10.4997 7 10.4997Z" fill="white"/>
</svg>
