<svg width="20" height="20" viewBox="0 0 20 20" fill="none" xmlns="http://www.w3.org/2000/svg">
<path d="M17.5 18.3333H2.5C2.15833 18.3333 1.875 18.05 1.875 17.7083C1.875 17.3667 2.15833 17.0833 2.5 17.0833H17.5C17.8417 17.0833 18.125 17.3667 18.125 17.7083C18.125 18.05 17.8417 18.3333 17.5 18.3333Z" fill="black"/>
<path d="M15.85 2.9C14.2333 1.28333 12.65 1.24166 10.9916 2.9L9.98331 3.90833C9.89998 3.99166 9.86665 4.125 9.89998 4.24166C10.5333 6.45 12.3 8.21666 14.5083 8.85C14.5416 8.85833 14.575 8.86666 14.6083 8.86666C14.7 8.86666 14.7833 8.83333 14.85 8.76666L15.85 7.75833C16.675 6.94166 17.075 6.15 17.075 5.35C17.0833 4.525 16.6833 3.725 15.85 2.9Z" fill="black"/>
<path d="M13.0084 9.60833C12.7668 9.49166 12.5334 9.375 12.3084 9.24166C12.1251 9.13333 11.9501 9.01666 11.7751 8.89166C11.6334 8.8 11.4668 8.66666 11.3084 8.53333C11.2918 8.525 11.2334 8.475 11.1668 8.40833C10.8918 8.175 10.5834 7.875 10.3084 7.54166C10.2834 7.525 10.2418 7.46666 10.1834 7.39166C10.1001 7.29166 9.95844 7.125 9.83344 6.93333C9.73344 6.80833 9.61677 6.625 9.50844 6.44166C9.3751 6.21666 9.25844 5.99166 9.14177 5.75833C8.9888 5.43055 8.55859 5.33317 8.30282 5.58895L3.61677 10.275C3.50844 10.3833 3.40844 10.5917 3.38344 10.7333L2.93344 13.925C2.8501 14.4917 3.00844 15.025 3.35844 15.3833C3.65844 15.675 4.0751 15.8333 4.5251 15.8333C4.6251 15.8333 4.7251 15.825 4.8251 15.8083L8.0251 15.3583C8.1751 15.3333 8.38344 15.2333 8.48344 15.125L13.1772 10.4312C13.4279 10.1806 13.3337 9.74928 13.0084 9.60833Z" fill="black"/>
</svg>
