<svg width="24" height="24" viewBox="0 0 24 24" fill="none" xmlns="http://www.w3.org/2000/svg">
<path d="M15.75 18.51C15.75 19.01 16.15 19.41 16.65 19.41L21.3 19.41C21.8 19.41 22.2 19.01 22.2 18.51C22.2 18.01 21.8 17.61 21.3 17.61L16.65 17.61C16.16 17.61 15.75 18.02 15.75 18.51Z" fill="#7FB1F8"/>
<path d="M8.25 12C8.25 11.5 7.85 11.1 7.35 11.1L2.7 11.1C2.2 11.1 1.8 11.5 1.8 12C1.8 12.5 2.2 12.9 2.7 12.9L7.35 12.9C7.84 12.9 8.25 12.5 8.25 12Z" fill="#7FB1F8"/>
<path d="M15.75 5.49C15.75 5.99 16.15 6.39 16.65 6.39L21.3 6.39C21.8 6.39 22.2 5.99 22.2 5.49C22.2 4.99 21.8 4.59 21.3 4.59L16.65 4.59C16.16 4.59 15.75 4.99 15.75 5.49Z" fill="#7FB1F8"/>
<path d="M13.83 7.35L13.83 3.63C13.83 3.13 13.43 2.73 12.93 2.73C12.43 2.73 12.03 3.13 12.03 3.63L12.03 4.59L2.70002 4.59C2.20002 4.59 1.80002 4.99 1.80002 5.49C1.80002 5.99 2.20002 6.39 2.70002 6.39L12.03 6.39L12.03 7.35C12.03 7.85 12.43 8.25 12.93 8.25C13.43 8.25 13.83 7.84 13.83 7.35Z" fill="#7FB1F8"/>
<path d="M13.83 20.37L13.83 16.65C13.83 16.15 13.43 15.75 12.93 15.75C12.43 15.75 12.03 16.15 12.03 16.65L12.03 17.61L2.70002 17.61C2.20002 17.61 1.80002 18.01 1.80002 18.51C1.80002 19.01 2.20002 19.41 2.70002 19.41L12.03 19.41L12.03 20.37C12.03 20.87 12.43 21.27 12.93 21.27C13.43 21.27 13.83 20.87 13.83 20.37Z" fill="#7FB1F8"/>
<path d="M11.97 13.86L11.97 12.9L21.3 12.9C21.8 12.9 22.2 12.5 22.2 12C22.2 11.5 21.8 11.1 21.3 11.1L11.97 11.1L11.97 10.14C11.97 9.64 11.57 9.24 11.07 9.24C10.57 9.24 10.17 9.64 10.17 10.14L10.17 13.86C10.17 14.36 10.57 14.76 11.07 14.76C11.57 14.76 11.97 14.36 11.97 13.86Z" fill="#7FB1F8"/>
</svg>
