<svg width="23" height="20" viewBox="0 0 23 20" fill="none" xmlns="http://www.w3.org/2000/svg">
<g clip-path="url(#clip0_616_2800)">
<path d="M22.992 9.98047C22.992 10.6836 22.3931 11.2344 21.7142 11.2344H20.4365L20.4644 17.4922C20.4644 17.5977 20.4564 17.7031 20.4444 17.8086V18.4375C20.4444 19.3008 19.7297 20 18.8472 20H18.2083C18.1644 20 18.1205 20 18.0766 19.9961C18.0207 20 17.9648 20 17.9089 20H16.6111H15.6528C14.7703 20 14.0556 19.3008 14.0556 18.4375V17.5V15C14.0556 14.3086 13.4845 13.75 12.7778 13.75H10.2222C9.51545 13.75 8.94444 14.3086 8.94444 15V17.5V18.4375C8.94444 19.3008 8.22969 20 7.34722 20H6.38889H5.1151C5.05521 20 4.99531 19.9961 4.93542 19.9922C4.8875 19.9961 4.83958 20 4.79167 20H4.15278C3.27031 20 2.55556 19.3008 2.55556 18.4375V14.0625C2.55556 14.0273 2.55556 13.9883 2.55955 13.9531V11.2344H1.27778C0.559028 11.2344 0 10.6875 0 9.98047C0 9.62891 0.119792 9.31641 0.399306 9.04297L10.6375 0.3125C10.917 0.0390625 11.2365 0 11.516 0C11.7955 0 12.1149 0.078125 12.3545 0.273438L22.5528 9.04297C22.8722 9.31641 23.0319 9.62891 22.992 9.98047Z" fill="#3F3F3F"/>
</g>
<defs>
<clipPath id="clip0_616_2800">
<rect width="23" height="20" fill="white"/>
</clipPath>
</defs>
</svg>
