<svg width="20" height="20" viewBox="0 0 20 20" fill="none" xmlns="http://www.w3.org/2000/svg">
<path opacity="0.4" d="M13.4917 1.66663H6.51671C3.48338 1.66663 1.67505 3.47496 1.67505 6.50829V13.4833C1.67505 16.5166 3.48338 18.325 6.51671 18.325H13.4917C16.525 18.325 18.3334 16.5166 18.3334 13.4833V6.50829C18.3334 3.47496 16.525 1.66663 13.4917 1.66663Z" fill="#0071FF"/>
<path d="M14.1667 13.3084C13.075 13.3084 12.0334 12.8084 11.2 11.8834C12.025 10.825 12.5583 9.5167 12.675 8.08337H14.1583C14.5 8.08337 14.7833 7.80004 14.7833 7.45837C14.7833 7.1167 14.5 6.83337 14.1583 6.83337H12.1334C12.1167 6.83337 12.1 6.82503 12.0834 6.82503C12.0667 6.82503 12.05 6.83337 12.0334 6.83337H10.625V6.05835C10.625 5.71668 10.3417 5.43335 10 5.43335C9.65835 5.43335 9.37502 5.71668 9.37502 6.05835V6.83337H5.8417C5.50003 6.83337 5.2167 7.1167 5.2167 7.45837C5.2167 7.80004 5.50003 8.08337 5.8417 8.08337H10H11.4167C11.1084 11.0167 8.72501 13.3084 5.82501 13.3084C5.48335 13.3084 5.20001 13.5917 5.20001 13.9334C5.20001 14.275 5.48335 14.5584 5.82501 14.5584C7.55001 14.5584 9.12502 13.8917 10.3333 12.8C11.3917 13.9333 12.7333 14.5584 14.1583 14.5584C14.5 14.5584 14.7833 14.275 14.7833 13.9334C14.7833 13.5917 14.5084 13.3084 14.1667 13.3084Z" fill="#0071FF"/>
</svg>
