<svg width="12" height="18" viewBox="0 0 12 18" fill="none" xmlns="http://www.w3.org/2000/svg">
<path d="M7 0.666687H4.83333C2.16667 0.666687 0.5 2.33335 0.5 5.00002V8.37502H4.2L2.475 6.65002C2.35 6.52502 2.29167 6.36669 2.29167 6.20835C2.29167 6.05002 2.35 5.89169 2.475 5.76669C2.71667 5.52502 3.11667 5.52502 3.35833 5.76669L6.15 8.55835C6.39167 8.80002 6.39167 9.20002 6.15 9.44169L3.35833 12.2334C3.11667 12.475 2.71667 12.475 2.475 12.2334C2.23333 11.9917 2.23333 11.5917 2.475 11.35L4.2 9.62502H0.5V13C0.5 15.6667 2.16667 17.3334 4.83333 17.3334H6.99167C9.65833 17.3334 11.325 15.6667 11.325 13V5.00002C11.3333 2.33335 9.66667 0.666687 7 0.666687Z" fill="#EA2A2A"/>
</svg>
