<svg width="26" height="26" viewBox="0 0 26 26" fill="none" xmlns="http://www.w3.org/2000/svg">
<path d="M22.7544 5.6875H3.25439C2.81023 5.6875 2.44189 5.31917 2.44189 4.875C2.44189 4.43083 2.81023 4.0625 3.25439 4.0625H22.7544C23.1986 4.0625 23.5669 4.43083 23.5669 4.875C23.5669 5.31917 23.1986 5.6875 22.7544 5.6875Z" fill="white"/>
<path d="M13.5136 11.1042H3.25439C2.81023 11.1042 2.44189 10.7358 2.44189 10.2917C2.44189 9.8475 2.81023 9.47916 3.25439 9.47916H13.5136C13.9577 9.47916 14.3261 9.8475 14.3261 10.2917C14.3261 10.7358 13.9686 11.1042 13.5136 11.1042Z" fill="white"/>
<path d="M22.7544 16.5208H3.25439C2.81023 16.5208 2.44189 16.1525 2.44189 15.7083C2.44189 15.2642 2.81023 14.8958 3.25439 14.8958H22.7544C23.1986 14.8958 23.5669 15.2642 23.5669 15.7083C23.5669 16.1525 23.1986 16.5208 22.7544 16.5208Z" fill="white"/>
<path d="M13.5136 21.9375H3.25439C2.81023 21.9375 2.44189 21.5692 2.44189 21.125C2.44189 20.6808 2.81023 20.3125 3.25439 20.3125H13.5136C13.9577 20.3125 14.3261 20.6808 14.3261 21.125C14.3261 21.5692 13.9686 21.9375 13.5136 21.9375Z" fill="white"/>
</svg>
