<svg width="24" height="24" viewBox="0 0 24 24" fill="none" xmlns="http://www.w3.org/2000/svg">
<path d="M11.5 2C6.26 2 2 6.26 2 11.5C2 16.74 6.26 21 11.5 21C16.74 21 21 16.74 21 11.5C21 6.26 16.74 2 11.5 2ZM11.5 13.75H8.5C8.09 13.75 7.75 13.41 7.75 13C7.75 12.59 8.09 12.25 8.5 12.25H11.5C11.91 12.25 12.25 12.59 12.25 13C12.25 13.41 11.91 13.75 11.5 13.75ZM14.5 10.75H8.5C8.09 10.75 7.75 10.41 7.75 10C7.75 9.59 8.09 9.25 8.5 9.25H14.5C14.91 9.25 15.25 9.59 15.25 10C15.25 10.41 14.91 10.75 14.5 10.75Z" fill="#3F3F3F"/>
<path d="M22.1367 22C21.9155 22 21.6943 21.9139 21.5346 21.754L19.2488 19.4666C18.9171 19.1345 18.9171 18.5934 19.2488 18.249C19.5806 17.917 20.1214 17.917 20.4654 18.249L22.7512 20.5365C23.0829 20.8686 23.0829 21.4097 22.7512 21.754C22.5791 21.9139 22.3579 22 22.1367 22Z" fill="#3F3F3F"/>
</svg>
