<svg width="20" height="20" viewBox="0 0 20 20" fill="none" xmlns="http://www.w3.org/2000/svg">
<path d="M17.0833 8.49163H14.6749C12.6999 8.49163 11.0916 6.88329 11.0916 4.90829V2.49996C11.0916 2.04163 10.7166 1.66663 10.2583 1.66663H6.72492C4.15825 1.66663 2.08325 3.33329 2.08325 6.30829V13.6916C2.08325 16.6666 4.15825 18.3333 6.72492 18.3333H13.2749C15.8416 18.3333 17.9166 16.6666 17.9166 13.6916V9.32496C17.9166 8.86663 17.5416 8.49163 17.0833 8.49163ZM10.2333 13.15L8.56659 14.8166C8.50825 14.875 8.43325 14.925 8.35825 14.95C8.28325 14.9833 8.20825 15 8.12492 15C8.04158 15 7.96659 14.9833 7.89159 14.95C7.82492 14.925 7.75825 14.875 7.70825 14.825C7.69992 14.8166 7.69158 14.8166 7.69158 14.8083L6.02492 13.1416C5.78325 12.9 5.78325 12.5 6.02492 12.2583C6.26659 12.0166 6.66658 12.0166 6.90825 12.2583L7.49992 12.8666V9.37496C7.49992 9.03329 7.78325 8.74996 8.12492 8.74996C8.46659 8.74996 8.74992 9.03329 8.74992 9.37496V12.8666L9.34992 12.2666C9.59159 12.025 9.99158 12.025 10.2333 12.2666C10.4749 12.5083 10.4749 12.9083 10.2333 13.15Z" fill="#302E2B"/>
<path d="M14.5251 7.3417C15.3167 7.35004 16.4167 7.35003 17.3584 7.35003C17.8334 7.35003 18.0834 6.7917 17.7501 6.45837C16.5501 5.25003 14.4001 3.07503 13.1667 1.8417C12.8251 1.50003 12.2334 1.73337 12.2334 2.20837V5.1167C12.2334 6.33337 13.2667 7.3417 14.5251 7.3417Z" fill="#302E2B"/>
</svg>
